<?xml version="1.0" encoding="UTF-8" standalone="no"?>
<svg
   id="Layer_1"
   data-name="Layer 1"
   width="100"
   height="93"
   viewBox="0 0 100 93"
   version="1.1"
   sodipodi:docname="gitlab.svg"
   inkscape:version="1.4.3 (0d15f75, 2025-12-25)"
   xmlns:inkscape="http://www.inkscape.org/namespaces/inkscape"
   xmlns:sodipodi="http://sodipodi.sourceforge.net/DTD/sodipodi-0.dtd"
   xmlns="http://www.w3.org/2000/svg"
   xmlns:svg="http://www.w3.org/2000/svg">
  <sodipodi:namedview
     id="namedview4"
     pagecolor="#ffffff"
     bordercolor="#000000"
     borderopacity="0.25"
     inkscape:showpageshadow="2"
     inkscape:pageopacity="0.0"
     inkscape:pagecheckerboard="0"
     inkscape:deskcolor="#d1d1d1"
     inkscape:zoom="6.20021"
     inkscape:cx="71.287908"
     inkscape:cy="43.627555"
     inkscape:window-width="1920"
     inkscape:window-height="1051"
     inkscape:window-x="-9"
     inkscape:window-y="-9"
     inkscape:window-maximized="1"
     inkscape:current-layer="Layer_1" />
  <defs
     id="defs1">
    <style
       id="style1">
      .cls-1 {
        fill: #fca326;
      }

      .cls-2 {
        fill: #fc6d26;
      }

      .cls-3 {
        fill: #e24329;
      }
    </style>
  </defs>
  <path
     class="cls-3"
     d="M 97.727958,36.737564 97.592846,36.394482 84.171298,2.4022105 C 83.903109,1.7362428 83.420783,1.1752342 82.792996,0.7877535 82.167243,0.39827054 81.433382,0.21462884 80.689103,0.25297944 79.94905,0.29129984 79.238022,0.5536653 78.657991,1.0016755 78.082118,1.453731 77.666335,2.0651966 77.470928,2.7553756 L 68.408883,29.678377 H 31.745022 L 22.682967,2.7553756 C 22.487571,2.0651966 22.071777,1.453731 21.495915,1.0016755 20.915885,0.5536653 20.204912,0.29131984 19.464803,0.25297944 18.72058,0.21465914 17.986663,0.39827054 17.360954,0.7877535 16.733112,1.1752342 16.250785,1.7362428 15.982609,2.4022105 L 2.5611048,36.396505 2.4259491,36.737564 c -3.9770049,10.070145 -0.5883568,21.454039 8.2678859,27.956242 0.01654,0.01018 0.03119,0.02216 0.04783,0.03425 l 0.118514,0.08681 20.444099,14.856999 10.111918,7.430508 6.153633,4.516428 c 1.482242,1.089756 3.532041,1.089756 5.014339,0 l 6.15359,-4.516426 10.109829,-7.430508 20.564691,-14.943773 c 0.01878,-0.01412 0.03543,-0.02622 0.0541,-0.04035 8.849996,-6.502195 12.236572,-17.882063 8.261639,-27.950195 z"
     id="path1"
     style="stroke-width:0.623786" />
  <path
     class="cls-2"
     d="m 97.727958,36.737564 -0.135112,-0.343082 c -6.658793,1.327889 -12.791627,4.06236 -18.042993,7.876515 -0.08516,0.06058 -15.95781,11.712838 -29.472906,21.631631 10.034969,7.365943 18.770608,13.769257 18.770608,13.769257 L 89.412259,64.728122 c 0.01877,-0.01412 0.03543,-0.02622 0.0541,-0.04036 8.849996,-6.502194 12.236561,-17.882062 8.261639,-27.950194 z"
     id="path2"
     style="stroke-width:0.623786" />
  <path
     class="cls-1"
     d="m 31.30426,79.671874 10.111907,7.430517 6.153634,4.51642 c 1.482252,1.089765 3.532051,1.089765 5.014338,0 l 6.153588,-4.51642 10.109828,-7.430517 c 0,0 -8.735639,-6.403313 -18.770608,-13.769246 C 40.0399,73.268561 31.30426,79.671874 31.30426,79.671874 Z"
     id="path3"
     style="stroke-width:0.623786" />
  <path
     class="cls-2"
     d="M 20.601951,44.270997 C 15.352676,40.458865 9.2219318,37.722371 2.5611048,36.396505 l -0.1351557,0.341059 c -3.9770049,10.070145 -0.5883568,21.454039 8.2678749,27.956242 0.01654,0.01018 0.03119,0.02216 0.04783,0.03425 l 0.118515,0.08681 20.44411,14.856999 c 0,0 8.735639,-6.403313 18.772687,-13.769255 C 36.561886,55.983817 20.68725,44.33152 20.601985,44.27098 Z"
     id="path4"
     style="stroke-width:0.623786" />
</svg>
