<svg width="12" height="20" viewBox="0 0 12 20" fill="none" xmlns="http://www.w3.org/2000/svg">
<path fill-rule="evenodd" clip-rule="evenodd" d="M10.7571 8.65916C11.0305 8.93264 11.1841 9.30351 11.1841 9.6902C11.1841 10.0769 11.0305 10.4478 10.7571 10.7212L2.5073 18.971C2.37277 19.1103 2.21185 19.2214 2.03393 19.2979C1.856 19.3743 1.66464 19.4145 1.47101 19.4162C1.27737 19.4179 1.08534 19.381 0.906113 19.3077C0.726889 19.2343 0.564062 19.126 0.427136 18.9891C0.290209 18.8522 0.181923 18.6894 0.108597 18.5101C0.0352704 18.3309 -0.00162759 18.1389 5.50624e-05 17.9452C0.00173771 17.7516 0.0419677 17.5602 0.118397 17.3823C0.194827 17.2044 0.305926 17.0435 0.445212 16.909L7.66396 9.6902L0.445212 2.47145C0.179564 2.19641 0.0325726 1.82803 0.0358953 1.44566C0.039218 1.06329 0.192589 0.697523 0.462976 0.427136C0.733363 0.156749 1.09913 0.00337782 1.4815 5.51288e-05C1.86387 -0.00326757 2.23225 0.143724 2.5073 0.409371L10.7571 8.65916Z" fill="black"/>
</svg>
